<svg width="32" height="32" viewBox="0 0 32 32" fill="none" xmlns="http://www.w3.org/2000/svg">
<circle cx="16" cy="10" r="4" stroke="#B8C1CC" stroke-width="2"/>
<path d="M24 24.25L24 24.2508C23.9999 24.251 23.9997 24.2525 23.9987 24.2555C23.9969 24.2613 23.9911 24.2775 23.974 24.3042C23.9378 24.361 23.8584 24.4538 23.7 24.5704C23.3761 24.8087 22.8406 25.0602 22.0806 25.2847C20.5729 25.7302 18.4251 26 16 26C13.5748 26 11.4271 25.7302 9.91941 25.2847C9.15941 25.0602 8.62385 24.8087 8.29998 24.5704C8.14165 24.4538 8.06222 24.361 8.02598 24.3042C8.00894 24.2775 8.00306 24.2613 8.00126 24.2555C8.00032 24.2525 8.00008 24.251 8.00005 24.2508L8 24.25C8 20.3261 11.498 17 16 17C20.502 17 24 20.3261 24 24.25Z" stroke="#B8C1CC" stroke-width="2"/>
</svg>
