<svg width="32" height="32" viewBox="0 0 32 32" fill="none" xmlns="http://www.w3.org/2000/svg">
<path d="M7.2978 22.1175L8.2971 22.0802C8.2887 21.8555 8.20483 21.6402 8.05904 21.4691L7.2978 22.1175ZM7.44293 26L6.44363 26.0373C6.45467 26.3327 6.59578 26.608 6.82908 26.7894C7.06239 26.9708 7.36399 27.0398 7.65293 26.9777L7.44293 26ZM11.5015 25.1283L11.8792 24.2023C11.693 24.1264 11.4881 24.1083 11.2915 24.1506L11.5015 25.1283ZM26 16C26 20.883 21.6147 25 16 25V27C22.5356 27 28 22.1627 28 16H26ZM16 7C21.6147 7 26 11.117 26 16H28C28 9.83731 22.5356 5 16 5V7ZM6 16C6 11.117 10.3853 7 16 7V5C9.46441 5 4 9.83731 4 16H6ZM8.05904 21.4691C6.76058 19.9448 6 18.0486 6 16H4C4 18.56 4.95406 20.9083 6.53655 22.766L8.05904 21.4691ZM6.29849 22.1549L6.44363 26.0373L8.44224 25.9626L8.2971 22.0802L6.29849 22.1549ZM7.65293 26.9777L11.7115 26.106L11.2915 24.1506L7.23293 25.0223L7.65293 26.9777ZM16 25C14.5274 25 13.133 24.7138 11.8792 24.2023L11.1238 26.0542C12.6165 26.6631 14.2673 27 16 27V25Z" fill="#B8C1CC"/>
<circle cx="11" cy="16" r="1.25" fill="#B8C1CC" stroke="#B8C1CC" stroke-width="0.5"/>
<circle cx="16" cy="16" r="1.25" fill="#B8C1CC" stroke="#B8C1CC" stroke-width="0.5"/>
<circle cx="21" cy="16" r="1.25" fill="#B8C1CC" stroke="#B8C1CC" stroke-width="0.5"/>
</svg>
