<svg width="66" height="66" viewBox="0 0 66 66" fill="none" xmlns="http://www.w3.org/2000/svg">
<path d="M62.7 33C64.5225 33 66.0171 34.4812 65.8352 36.2946C65.2971 41.6573 63.4514 46.8247 60.4385 51.3338C56.8124 56.7606 51.6585 60.9903 45.6286 63.488C39.5986 65.9857 32.9634 66.6392 26.562 65.3659C20.1606 64.0926 14.2806 60.9497 9.66548 56.3345C5.05034 51.7194 1.9074 45.8394 0.634086 39.438C-0.639227 33.0366 0.0142836 26.4014 2.51198 20.3714C5.00967 14.3415 9.23936 9.18759 14.6662 5.5615C19.1753 2.5486 24.3427 0.702915 29.7054 0.164851C31.5188 -0.0170986 33 1.47746 33 3.3C33 5.12254 31.5168 6.57874 29.7085 6.80597C25.6534 7.31553 21.7561 8.76193 18.3329 11.0492C13.9915 13.9501 10.6077 18.0732 8.60958 22.8972C6.61143 27.7211 6.08862 33.0293 7.10727 38.1504C8.12592 43.2715 10.6403 47.9755 14.3324 51.6676C18.0245 55.3597 22.7285 57.8741 27.8496 58.8927C32.9707 59.9114 38.2789 59.3886 43.1028 57.3904C47.9268 55.3923 52.0499 52.0085 54.9508 47.6671C57.2381 44.2439 58.6845 40.3466 59.194 36.2915C59.4213 34.4832 60.8775 33 62.7 33Z" fill="url(#paint0_linear_1_8381)"/>
<defs>
<linearGradient id="paint0_linear_1_8381" x1="33" y1="0" x2="33" y2="66" gradientUnits="userSpaceOnUse">
<stop stop-color="#8BE1FF"/>
<stop offset="1" stop-color="#3787FF"/>
</linearGradient>
</defs>
</svg>
