<svg width="32" height="32" viewBox="0 0 32 32" fill="none" xmlns="http://www.w3.org/2000/svg">
<path d="M8 14H11C11.5523 14 12 14.4477 12 15V19C12 19.5523 11.5523 20 11 20H8" stroke="#B8C1CC" stroke-width="2"/>
<path d="M8 10H15V22.5C15 24.433 13.433 26 11.5 26C9.567 26 8 24.433 8 22.5V10Z" stroke="#B8C1CC" stroke-width="2"/>
<path d="M5.72536 10C5.34058 8.6945 5.34058 7.3055 5.72536 6H17.2746C17.6594 7.3055 17.6594 8.6945 17.2746 10H5.72536Z" stroke="#B8C1CC" stroke-width="2"/>
<path d="M27 17.8684C27 20.01 25.1616 22 23 22C20.8384 22 19 20.01 19 17.8684C19 16.3683 20.0337 14.6414 21.2675 13.164C21.861 12.4534 22.4573 11.8514 22.9062 11.4265C22.9382 11.3961 22.9695 11.3667 23 11.3382C23.0305 11.3667 23.0618 11.3961 23.0938 11.4265C23.5427 11.8514 24.139 12.4534 24.7325 13.164C25.9663 14.6414 27 16.3683 27 17.8684Z" stroke="#B8C1CC" stroke-width="2"/>
</svg>
